<svg xmlns="http://www.w3.org/2000/svg" viewBox="0 0 24 24" width="32" height="32">
  <path fill="#0052CC" d="M.887 18.518c-.3.476-.624.984-.815 1.285a1.037 1.037 0 0 0 .345 1.406l3.693 2.267a1.037 1.037 0 0 0 1.423-.355c.166-.277.473-.782.806-1.332 2.151-3.544 4.316-3.109 8.22-1.287l3.671 1.777a1.037 1.037 0 0 0 1.388-.517l1.718-4.093a1.037 1.037 0 0 0-.516-1.355c-.816-.386-2.44-1.162-3.89-1.862-7.016-3.4-13-2.876-16.043 2.066zM23.113 5.482c.3-.476.625-.984.815-1.285a1.037 1.037 0 0 0-.344-1.406L19.89.524a1.037 1.037 0 0 0-1.423.355c-.166.277-.473.782-.806 1.332C15.51 5.755 13.344 5.32 9.44 3.498L5.77 1.72A1.037 1.037 0 0 0 4.382 2.24L2.663 6.332a1.037 1.037 0 0 0 .516 1.355c.816.386 2.44 1.162 3.89 1.863 7.016 3.4 12.997 2.875 16.044-2.068z"/>
</svg>
